<?xml version="1.0" encoding="UTF-8"?>
<svg version="1.1" xmlns="http://www.w3.org/2000/svg" width="32" height="32">
<path d="M0 0 C10.56 0 21.12 0 32 0 C32 10.56 32 21.12 32 32 C21.44 32 10.88 32 0 32 C0 21.44 0 10.88 0 0 Z " fill="#D9DAE6" transform="translate(0,0)"/>
<path d="M0 0 C2.02045442 0.60183749 4.02111039 1.27306096 6 2 C6.33 2.66 6.66 3.32 7 4 C8.17755859 3.98259766 8.17755859 3.98259766 9.37890625 3.96484375 C15.03719775 3.91624493 20.42878878 3.98705251 26 5 C25.67 6.65 25.34 8.3 25 10 C19.47291389 10.94220126 14.16241648 11.12116149 8.5625 11.0625 C7.73556641 11.05798828 6.90863281 11.05347656 6.05664062 11.04882812 C4.03772854 11.03715811 2.01885426 11.01922718 0 11 C0 7.37 0 3.74 0 0 Z " fill="#2E4199" transform="translate(0,21)"/>
<path d="M0 0 C7.26 0 14.52 0 22 0 C23.43735246 2.87470493 23.38172649 4.81894588 23 8 C20.6875 10.4375 20.6875 10.4375 18 12 C17.01 11.67 16.02 11.34 15 11 C15 9.68 15 8.36 15 7 C14.06716704 4.79932579 14.06716704 4.79932579 13 3 C11.35 3 9.7 3 8 3 C7.67 4.98 7.34 6.96 7 9 C6.67 8.01 6.34 7.02 6 6 C3.03 5.505 3.03 5.505 0 5 C0 3.35 0 1.7 0 0 Z " fill="#DEE2ED" transform="translate(4,0)"/>
<path d="M0 0 C1.32 0 2.64 0 4 0 C4 1.65 4 3.3 4 5 C4.66 5 5.32 5 6 5 C6.33 5.99 6.66 6.98 7 8 C6.01 8.33 5.02 8.66 4 9 C4.33 9.99 4.66 10.98 5 12 C8.00847418 13.22520264 8.00847418 13.22520264 11 14 C10.3125 15.9375 10.3125 15.9375 9 18 C5.37541078 19.23999105 3.82776623 18.95694156 0 18 C0 12.06 0 6.12 0 0 Z " fill="#6778B0" transform="translate(0,0)"/>
<path d="M0 0 C0.33 0.66 0.66 1.32 1 2 C1.66 1.67 2.32 1.34 3 1 C10.124487 0.54035568 10.124487 0.54035568 13.5 2.3125 C15 4 15 4 15 7 C14.27554687 6.91621094 13.55109375 6.83242188 12.8046875 6.74609375 C7.66107457 6.20429986 3.08279437 5.76029406 -2 7 C-3.1446875 7.2165625 -3.1446875 7.2165625 -4.3125 7.4375 C-6.22097087 7.85268609 -6.22097087 7.85268609 -7 10 C-7.33 9.34 -7.66 8.68 -8 8 C-5.05263158 0 -5.05263158 0 0 0 Z " fill="#DFE4EE" transform="translate(17,12)"/>
<path d="M0 0 C1 2 1 2 1 4 C1.5775 4.144375 2.155 4.28875 2.75 4.4375 C4.83333333 4.95833333 6.91666667 5.47916667 9 6 C8.67 7.32 8.34 8.64 8 10 C4.37 10 0.74 10 -3 10 C-3.33 9.01 -3.66 8.02 -4 7 C-5.93618425 6.32843384 -5.93618425 6.32843384 -8 6 C-8.66 5.67 -9.32 5.34 -10 5 C-10 4.01 -10 3.02 -10 2 C-8.72125 2.04125 -7.4425 2.0825 -6.125 2.125 C-3.98128508 2.24212873 -3.98128508 2.24212873 -2 2 C-1.34 1.34 -0.68 0.68 0 0 Z " fill="#9EA8CB" transform="translate(10,16)"/>
<path d="M0 0 C1.98 0 3.96 0 6 0 C6 5.28 6 10.56 6 16 C4.68 15.34 3.36 14.68 2 14 C-0.66353755 13.48479018 -3.29499131 13.27050087 -6 13 C-5.195625 12.360625 -4.39125 11.72125 -3.5625 11.0625 C-1.7249496 9.59396498 -1.7249496 9.59396498 0 8 C0.07148199 6.64756083 0.08399454 5.29165633 0.0625 3.9375 C0.041875 2.638125 0.02125 1.33875 0 0 Z " fill="#6A77AD" transform="translate(26,0)"/>
<path d="M0 0 C2.9375 0.8125 2.9375 0.8125 6 2 C7.09658936 5.28976808 6.79953138 6.71303767 6 10 C6.84820313 9.83628906 7.69640625 9.67257813 8.5703125 9.50390625 C12.0645531 8.99051555 15.34627574 8.90149261 18.875 8.9375 C20.02742188 8.94652344 21.17984375 8.95554687 22.3671875 8.96484375 C23.23601563 8.97644531 24.10484375 8.98804688 25 9 C25 9.33 25 9.66 25 10 C19.47291389 10.94220126 14.16241648 11.12116149 8.5625 11.0625 C7.73556641 11.05798828 6.90863281 11.05347656 6.05664062 11.04882812 C4.03772854 11.03715811 2.01885426 11.01922718 0 11 C0 7.37 0 3.74 0 0 Z " fill="#6B7DB4" transform="translate(0,21)"/>
<path d="M0 0 C5.36170213 0.59574468 5.36170213 0.59574468 7.875 2.1875 C9.51914844 4.83640581 9.25961832 6.94948477 9 10 C8.67 10.66 8.34 11.32 8 12 C4.04 12 0.08 12 -4 12 C-4 11.67 -4 11.34 -4 11 C-0.535 10.505 -0.535 10.505 3 10 C3.061875 8.72125 3.12375 7.4425 3.1875 6.125 C3.22230469 5.40570312 3.25710937 4.68640625 3.29296875 3.9453125 C3.19628906 3.30335937 3.09960938 2.66140625 3 2 C2.01 1.34 1.02 0.68 0 0 Z " fill="#DBE6EE" transform="translate(22,20)"/>
<path d="M0 0 C2.475 0.99 2.475 0.99 5 2 C5 2.99 5 3.98 5 5 C5.99 4.67 6.98 4.34 8 4 C8.33 4.66 8.66 5.32 9 6 C3.58461538 9.07692308 3.58461538 9.07692308 0.625 8.6875 C0.08875 8.460625 -0.4475 8.23375 -1 8 C-1 6.68 -1 5.36 -1 4 C-0.34 3.67 0.32 3.34 1 3 C0.67 2.01 0.34 1.02 0 0 Z " fill="#C2CBE8" transform="translate(5,4)"/>
<path d="M0 0 C0.66 0 1.32 0 2 0 C2 1.65 2 3.3 2 5 C2.66 5 3.32 5 4 5 C4.33 5.99 4.66 6.98 5 8 C4.01 8.33 3.02 8.66 2 9 C2.33 9.99 2.66 10.98 3 12 C6.00847418 13.22520264 6.00847418 13.22520264 9 14 C8.67 14.99 8.34 15.98 8 17 C5.36 15.68 2.72 14.36 0 13 C0.020625 12.0925 0.04125 11.185 0.0625 10.25 C0.1276842 7.14832294 0.1276842 7.14832294 -0.5625 4.8125 C-1 3 -1 3 0 0 Z " fill="#6675A2" transform="translate(2,0)"/>
<path d="M0 0 C2.64 0.33 5.28 0.66 8 1 C8 5.29 8 9.58 8 14 C7.34 14 6.68 14 6 14 C6.185625 12.1746875 6.185625 12.1746875 6.375 10.3125 C6.40317096 7.6644298 6.37498146 6.45173206 4.6640625 4.390625 C3.16178837 3.19162687 1.58388148 2.08891852 0 1 C0 0.67 0 0.34 0 0 Z " fill="#7E84B9" transform="translate(24,18)"/>
<path d="M0 0 C1.06546953 3.1964086 1.07427838 5.65747276 1 9 C-1.97 9 -4.94 9 -8 9 C-6.8553125 8.1646875 -6.8553125 8.1646875 -5.6875 7.3125 C-3.03859112 5.03320631 -1.61711178 3.06400128 0 0 Z " fill="#6D779A" transform="translate(28,4)"/>
<path d="M0 0 C1.65 0 3.3 0 5 0 C5 0.66 5 1.32 5 2 C5.99 2.33 6.98 2.66 8 3 C7.67 3.66 7.34 4.32 7 5 C4.69 4.67 2.38 4.34 0 4 C0 2.68 0 1.36 0 0 Z " fill="#979EB3" transform="translate(12,3)"/>
<path d="M0 0 C2.97 0 5.94 0 9 0 C8.01 0.33 7.02 0.66 6 1 C5.26676204 3.01508358 5.26676204 3.01508358 5 5 C3.35 5 1.7 5 0 5 C0 3.35 0 1.7 0 0 Z " fill="#DADEE6" transform="translate(4,0)"/>
<path d="M0 0 C2.64 0.33 5.28 0.66 8 1 C8 1.99 8 2.98 8 4 C2.25 4.125 2.25 4.125 0 3 C0 2.01 0 1.02 0 0 Z " fill="#D4DFE8" transform="translate(0,18)"/>
<path d="M0 0 C2.64 0 5.28 0 8 0 C8 0.99 8 1.98 8 3 C5.03 3 2.06 3 -1 3 C-0.67 2.01 -0.34 1.02 0 0 Z " fill="#202F85" transform="translate(17,27)"/>
<path d="M0 0 C2.475 0.99 2.475 0.99 5 2 C5 2.99 5 3.98 5 5 C5.99 4.67 6.98 4.34 8 4 C8.33 4.66 8.66 5.32 9 6 C7.02 6.33 5.04 6.66 3 7 C2.01 4.69 1.02 2.38 0 0 Z " fill="#9EA2B8" transform="translate(5,4)"/>
<path d="M0 0 C0.99 0 1.98 0 3 0 C2.34 2.64 1.68 5.28 1 8 C0.67 7.01 0.34 6.02 0 5 C-0.66 4.67 -1.32 4.34 -2 4 C-1 1 -1 1 0 0 Z " fill="#E3E8F4" transform="translate(10,1)"/>
<path d="M0 0 C1.98 0 3.96 0 6 0 C6 0.99 6 1.98 6 3 C3.69 3 1.38 3 -1 3 C-0.67 2.01 -0.34 1.02 0 0 Z " fill="#B2B8D6" transform="translate(13,22)"/>
<path d="M0 0 C0.37125 0.45375 0.7425 0.9075 1.125 1.375 C3.54264685 3.47029394 5.95430602 4.12013285 9 5 C8.67 5.99 8.34 6.98 8 8 C5.36 6.68 2.72 5.36 0 4 C0 2.68 0 1.36 0 0 Z " fill="#5D6B96" transform="translate(2,9)"/>
<path d="M0 0 C2.97 0.495 2.97 0.495 6 1 C6.33 2.65 6.66 4.3 7 6 C5.83054208 5.19152271 4.66449539 4.37810888 3.5 3.5625 C2.8503125 3.11003906 2.200625 2.65757813 1.53125 2.19140625 C1.0259375 1.79824219 0.520625 1.40507812 0 1 C0 0.67 0 0.34 0 0 Z " fill="#68739A" transform="translate(24,18)"/>
<path d="M0 0 C-0.33 1.32 -0.66 2.64 -1 4 C-1 3.01 -1 2.02 -1 1 C-2.6396875 1.309375 -2.6396875 1.309375 -4.3125 1.625 C-8 2 -8 2 -11 0 C-6.94952424 -1.35015859 -4.2079832 -0.62084998 0 0 Z " fill="#4D5BA8" transform="translate(26,26)"/>
<path d="M0 0 C0.99 0 1.98 0 3 0 C3 0.66 3 1.32 3 2 C3.66 2 4.32 2 5 2 C5 2.66 5 3.32 5 4 C3.02 4 1.04 4 -1 4 C-0.67 2.68 -0.34 1.36 0 0 Z " fill="#9AA4CC" transform="translate(20,22)"/>
</svg>
